name rise42.5664peak47.7979fall81.9185.mot
datacolumns 19
datarows 12
range 23.17325100000000 23.19157800000000
endheader
time	ground_force1_vx	ground_force1_vy	ground_force1_vz	ground_force1_px	ground_force1_py	ground_force1_pz	ground_force2_vx	ground_force2_vy	ground_force2_vz	ground_force2_px	ground_force2_py	ground_force2_pz	ground_torque1_x	ground_torque1_y	ground_torque1_z	ground_torque2_x	ground_torque2_y	ground_torque2_z	
23.17325100000000	-7.93236200000000	714.95210799999995	40.02788300000000	0.14493300000000	0.00000000000000	0.10644200000000	0.00000000000000	0.00000000000000	0.00000000000000	0.00000000000000	0.00000000000000	0.00000000000000	0.00000000000000	12.27531300000000	0.00000000000000	0.00000000000000	0.00000000000000	0.00000000000000	
23.17491300000000	-8.32184600000000	715.46510499999999	40.06098100000000	0.14403500000000	0.00000000000000	0.10642800000000	0.00000000000000	0.00000000000000	0.00000000000000	0.00000000000000	0.00000000000000	0.00000000000000	0.00000000000000	12.30762700000000	0.00000000000000	0.00000000000000	0.00000000000000	0.00000000000000	
23.17657600000000	-8.71865800000000	715.99311399999999	40.09476000000000	0.14313600000000	0.00000000000000	0.10641300000000	0.00000000000000	0.00000000000000	0.00000000000000	0.00000000000000	0.00000000000000	0.00000000000000	0.00000000000000	12.34319900000000	0.00000000000000	0.00000000000000	0.00000000000000	0.00000000000000	
23.17825600000000	-9.12299600000000	716.53621599999997	40.12917300000000	0.14223800000000	0.00000000000000	0.10639800000000	0.00000000000000	0.00000000000000	0.00000000000000	0.00000000000000	0.00000000000000	0.00000000000000	0.00000000000000	12.38207000000000	0.00000000000000	0.00000000000000	0.00000000000000	0.00000000000000	
23.17991200000000	-9.53504200000000	717.09453399999995	40.16418600000000	0.14134200000000	0.00000000000000	0.10638200000000	0.00000000000000	0.00000000000000	0.00000000000000	0.00000000000000	0.00000000000000	0.00000000000000	0.00000000000000	12.42427700000000	0.00000000000000	0.00000000000000	0.00000000000000	0.00000000000000	
23.18157700000000	-9.95495600000000	717.66823399999998	40.19976600000000	0.14044700000000	0.00000000000000	0.10636600000000	0.00000000000000	0.00000000000000	0.00000000000000	0.00000000000000	0.00000000000000	0.00000000000000	0.00000000000000	12.46984700000000	0.00000000000000	0.00000000000000	0.00000000000000	0.00000000000000	
23.18324100000000	-10.38287700000000	718.25752100000000	40.23589000000000	0.13955400000000	0.00000000000000	0.10635000000000	0.00000000000000	0.00000000000000	0.00000000000000	0.00000000000000	0.00000000000000	0.00000000000000	0.00000000000000	12.51880200000000	0.00000000000000	0.00000000000000	0.00000000000000	0.00000000000000	
23.18491300000000	-10.81892800000000	718.86264000000006	40.27254200000000	0.13866500000000	0.00000000000000	0.10633300000000	0.00000000000000	0.00000000000000	0.00000000000000	0.00000000000000	0.00000000000000	0.00000000000000	0.00000000000000	12.57115600000000	0.00000000000000	0.00000000000000	0.00000000000000	0.00000000000000	
23.18658700000000	-11.26321000000000	719.48387000000002	40.30970900000000	0.13777800000000	0.00000000000000	0.10631600000000	0.00000000000000	0.00000000000000	0.00000000000000	0.00000000000000	0.00000000000000	0.00000000000000	0.00000000000000	12.62691600000000	0.00000000000000	0.00000000000000	0.00000000000000	0.00000000000000	
23.18825300000000	-11.71580300000000	720.12152300000002	40.34738800000000	0.13689500000000	0.00000000000000	0.10629800000000	0.00000000000000	0.00000000000000	0.00000000000000	0.00000000000000	0.00000000000000	0.00000000000000	0.00000000000000	12.68607800000000	0.00000000000000	0.00000000000000	0.00000000000000	0.00000000000000	
23.18991000000000	-12.17677100000000	720.77594199999999	40.38557700000000	0.13601700000000	0.00000000000000	0.10628000000000	0.00000000000000	0.00000000000000	0.00000000000000	0.00000000000000	0.00000000000000	0.00000000000000	0.00000000000000	12.74863200000000	0.00000000000000	0.00000000000000	0.00000000000000	0.00000000000000	
23.19157800000000	-12.64615600000000	721.44749500000000	40.42428200000000	0.13514200000000	0.00000000000000	0.10626100000000	0.00000000000000	0.00000000000000	0.00000000000000	0.00000000000000	0.00000000000000	0.00000000000000	0.00000000000000	12.81456000000000	0.00000000000000	0.00000000000000	0.00000000000000	0.00000000000000	
